<svg viewBox="0 0 720 720" fill="none" stroke-linecap="square" stroke-miterlimit="10" xmlns="http://www.w3.org/2000/svg"><clipPath id="a"><path d="M0 0h720v720H0z"/></clipPath><g clip-path="url(#a)"><path d="M0 0h720v720H0z"/><path fill="#fff" d="M214.197 248.243q-12.39 0-12.389 12.894v60.597q0 11.883 12.39 11.883h58.573q5.647 0 9.271-2.528 3.624-2.613 3.624-9.355v-60.597q0-12.894-12.895-12.894zm0 195.696q-12.39 0-12.389 12.895v60.596q0 11.884 12.39 11.884h58.573q5.647 0 9.271-2.529 3.624-2.612 3.624-9.355v-60.596q0-12.895-12.895-12.895zM429.616 82.971q-23.767 26.464-46.354 65.317-22.503 38.768-36.999 91.105-14.496 52.254-14.496 120.098 0 71.47 13.99 123.806 13.992 52.253 36.24 89.505 22.251 37.335 47.619 64.22h88.577q-26.379-42.476-45.595-83.942-19.131-41.38-29.75-88.24t-10.62-105.349q0-59.585 12.642-109.478 12.726-49.978 32.363-91.612 19.722-41.718 40.96-75.43z" fill-rule="evenodd"/><path stroke="#fff" stroke-linejoin="round" stroke-linecap="butt" d="M214.197 248.243q-12.39 0-12.389 12.894v60.597q0 11.883 12.39 11.883h58.573q5.647 0 9.271-2.528 3.624-2.613 3.624-9.355v-60.597q0-12.894-12.895-12.894zm0 195.696q-12.39 0-12.389 12.895v60.596q0 11.884 12.39 11.884h58.573q5.647 0 9.271-2.529 3.624-2.612 3.624-9.355v-60.596q0-12.895-12.895-12.895zM429.616 82.971q-23.767 26.464-46.354 65.317-22.503 38.768-36.999 91.105-14.496 52.254-14.496 120.098 0 71.47 13.99 123.806 13.992 52.253 36.24 89.505 22.251 37.335 47.619 64.22h88.577q-26.379-42.476-45.595-83.942-19.131-41.38-29.75-88.24t-10.62-105.349q0-59.585 12.642-109.478 12.726-49.978 32.363-91.612 19.722-41.718 40.96-75.43z"/></g></svg>