<?xml version="1.0" encoding="utf-8"?>
<!-- License: PD. Made by Mary Akveo: https://maryakveo.com/ -->
<svg fill="#fff" width="800px" height="800px" viewBox="0 0 24 24" id="export" data-name="Flat Color" xmlns="http://www.w3.org/2000/svg" class="icon flat-color"><path id="secondary" d="M21,2H17a1,1,0,0,0,0,2h1.59l-8.3,8.29a1,1,0,0,0,0,1.42,1,1,0,0,0,1.42,0L20,5.41V7a1,1,0,0,0,2,0V3A1,1,0,0,0,21,2Z" style="fill: #fff;"></path><path id="primary" d="M18,22H4a2,2,0,0,1-2-2V6A2,2,0,0,1,4,4h6.11a1,1,0,0,1,0,2H4V20H18V13.89a1,1,0,0,1,2,0V20A2,2,0,0,1,18,22Z" style="fill: #fff;"></path></svg>