<svg version="1.1" viewBox="0.0 0.0 1080.0 1080.0" fill="none" stroke="none" stroke-linecap="square" stroke-miterlimit="10" xmlns:xlink="http://www.w3.org/1999/xlink" xmlns="http://www.w3.org/2000/svg"><clipPath id="p.0"><path d="m0 0l1080.0 0l0 1080.0l-1080.0 0l0 -1080.0z" clip-rule="nonzero"/></clipPath><g clip-path="url(#p.0)"><path fill="#000000" fill-opacity="0.0" d="m0 0l1080.0 0l0 1080.0l-1080.0 0z" fill-rule="evenodd"/><path fill="#ffffff" d="m24.224085 540.0033l340.0252 -175.75433l175.7543 -340.0252l175.75433 340.0252l340.02515 175.75433l-340.02515 175.75433l-175.75433 340.0252l-175.7543 -340.0252z" fill-rule="evenodd"/><path fill="#ffffff" d="m175.29134 175.29393l364.70868 116.156235l364.70868 -116.156235l-116.15625 364.70868l116.15625 364.70862l-364.70868 -116.15625l-364.70868 116.15625l116.156235 -364.70862z" fill-rule="evenodd"/><defs><linearGradient id="p.1" gradientUnits="userSpaceOnUse" gradientTransform="matrix(31.584272137031746 0.0 0.0 31.584272137031746 0.0 0.0)" spreadMethod="pad" x1="-5.237048405707768" y1="17.096353637152962" x2="17.096364024727766" y2="39.42984722051666"><stop offset="0.0" stop-color="#4a86e8"/><stop offset="1.0" stop-color="#9900ff"/></linearGradient></defs><path fill="url(#p.1)" d="m187.28456 393.8847l206.60045 -206.60046l292.18494 0l206.60046 206.60046l0 292.18494l-206.60046 206.6004l-292.18494 0l-206.60045 -206.6004z" fill-rule="evenodd"/></g></svg>