<svg version="1.1" viewBox="0.0 0.0 1500.0 600.0" fill="none" stroke="none" stroke-linecap="square" stroke-miterlimit="10" xmlns:xlink="http://www.w3.org/1999/xlink" xmlns="http://www.w3.org/2000/svg"><clipPath id="p.0"><path d="m0 0l1500.0 0l0 600.0l-1500.0 0l0 -600.0z" clip-rule="nonzero"/></clipPath><g clip-path="url(#p.0)"><path fill="#000000" fill-opacity="0.0" d="m0 0l1500.0 0l0 600.0l-1500.0 0z" fill-rule="evenodd"/><defs><linearGradient id="p.1" gradientUnits="userSpaceOnUse" gradientTransform="matrix(23.954135541118937 0.0 0.0 23.954135541118937 0.0 0.0)" spreadMethod="pad" x1="0.5022721877121897" y1="0.5466995842242411" x2="0.5021854620580504" y2="24.500835125186182"><stop offset="0.0" stop-color="#8c8c8c"/><stop offset="1.0" stop-color="#2c2c2c"/></linearGradient></defs><path fill="url(#p.1)" d="m12.031496 108.73551c0 -52.817455 42.81701 -95.63446 95.63446 -95.63446l1282.2114 0c25.363892 0 49.688843 10.075745 67.62378 28.010683c17.934937 17.93494 28.010742 42.25994 28.010742 67.62378l0 382.52637c0 52.817474 -42.817017 95.63443 -95.63452 95.63443l-1282.2114 0c-52.81745 0 -95.63446 -42.816956 -95.63446 -95.63443z" fill-rule="evenodd"/><path stroke="#ffffff" stroke-width="16.0" stroke-linejoin="round" stroke-linecap="butt" d="m12.031496 108.73551c0 -52.817455 42.81701 -95.63446 95.63446 -95.63446l1282.2114 0c25.363892 0 49.688843 10.075745 67.62378 28.010683c17.934937 17.93494 28.010742 42.25994 28.010742 67.62378l0 382.52637c0 52.817474 -42.817017 95.63443 -95.63452 95.63443l-1282.2114 0c-52.81745 0 -95.63446 -42.816956 -95.63446 -95.63443z" fill-rule="evenodd"/><path fill="#ff0000" d="m316.71072 68.72713c-37.60919 0 -70.02634 7.688202 -97.2514 23.064598c-27.158508 15.309837 -49.224792 38.407707 -66.19887 69.29363c-16.97406 30.88591 -29.355148 70.0591 -37.14325 117.51959c-2.8622894 17.173645 -5.4250336 35.079468 -7.6882553 53.71753c-2.2631989 18.571503 -3.3948135 36.843445 -3.3948135 54.815857c0 49.457428 8.886429 85.868195 26.659271 109.23233c17.839417 23.297607 48.42601 34.94635 91.75981 34.94635c8.586884 0 18.305359 -1.1315918 29.155457 -3.3947754c10.850098 -2.2631836 21.6669 -5.0255737 32.45041 -8.2872925c10.850098 -3.2616577 21.06781 -6.9226685 30.653168 -10.983154c9.651947 -4.127014 17.539886 -8.021027 23.663849 -11.682068l9.285828 30.652954l79.67825 0l41.736237 -264.9932c-4.9257812 0 -11.682129 -0.099853516 -20.269012 -0.29956055c-8.586884 -0.19967651 -17.57315 -0.39938354 -26.958832 -0.59906006c-9.385651 -0.19970703 -17.57315 -0.29956055 -24.56247 -0.29956055c-22.498962 0 -42.43518 0.73220825 -59.808624 2.1966248c-17.373444 1.3978577 -31.385376 2.6958618 -42.035767 3.894043l-13.479401 83.47186l71.79031 0l-11.682159 72.987946c-4.0604553 1.1981506 -9.185974 2.329773 -15.376495 3.3947754c-6.123993 0.9984741 -13.080017 1.8970947 -20.868134 2.6958618c-7.721527 0.7987976 -15.576202 1.6308594 -23.563995 2.4961853c-7.987793 0.7987671 -15.443085 1.1981506 -22.365845 1.1981506c-17.173752 0 -29.554825 -4.99234 -37.143234 -14.97699c-7.5218506 -10.051239 -11.282761 -23.863373 -11.282761 -41.4364c0 -18.438354 2.4296112 -43.59973 7.288864 -75.48413c5.724579 -34.746643 12.281235 -62.237778 19.669937 -82.47339c7.3887177 -20.235611 18.2388 -34.64682 32.550262 -43.233643c14.311493 -8.653381 33.71518 -12.980072 58.21109 -12.980072c33.149353 0 60.640686 1.1315918 82.47397 3.3947906c21.899902 2.2631989 38.77411 4.4265594 50.62268 6.490036l12.980164 -82.87278c-18.438507 -5.7245483 -39.83914 -10.716888 -64.201904 -14.977005c-24.296234 -4.3266983 -56.080994 -6.4900436 -95.35434 -6.4900436z" fill-rule="evenodd"/><defs><linearGradient id="p.2" gradientUnits="userSpaceOnUse" gradientTransform="matrix(21.507934067626916 0.0 0.0 21.507934067626916 0.0 0.0)" spreadMethod="pad" x1="4.883506751968877" y1="3.1953688850092243" x2="4.883428574751069" y2="24.703302952494063"><stop offset="0.0" stop-color="#ffffff" stop-opacity="0.0"/><stop offset="0.29" stop-color="#000000" stop-opacity="0.0"/><stop offset="1.0" stop-color="#000000" stop-opacity="0.8"/></linearGradient></defs><path fill="url(#p.2)" d="m316.71072 68.72713c-37.60919 0 -70.02634 7.688202 -97.2514 23.064598c-27.158508 15.309837 -49.224792 38.407707 -66.19887 69.29363c-16.97406 30.88591 -29.355148 70.0591 -37.14325 117.51959c-2.8622894 17.173645 -5.4250336 35.079468 -7.6882553 53.71753c-2.2631989 18.571503 -3.3948135 36.843445 -3.3948135 54.815857c0 49.457428 8.886429 85.868195 26.659271 109.23233c17.839417 23.297607 48.42601 34.94635 91.75981 34.94635c8.586884 0 18.305359 -1.1315918 29.155457 -3.3947754c10.850098 -2.2631836 21.6669 -5.0255737 32.45041 -8.2872925c10.850098 -3.2616577 21.06781 -6.9226685 30.653168 -10.983154c9.651947 -4.127014 17.539886 -8.021027 23.663849 -11.682068l9.285828 30.652954l79.67825 0l41.736237 -264.9932c-4.9257812 0 -11.682129 -0.099853516 -20.269012 -0.29956055c-8.586884 -0.19967651 -17.57315 -0.39938354 -26.958832 -0.59906006c-9.385651 -0.19970703 -17.57315 -0.29956055 -24.56247 -0.29956055c-22.498962 0 -42.43518 0.73220825 -59.808624 2.1966248c-17.373444 1.3978577 -31.385376 2.6958618 -42.035767 3.894043l-13.479401 83.47186l71.79031 0l-11.682159 72.987946c-4.0604553 1.1981506 -9.185974 2.329773 -15.376495 3.3947754c-6.123993 0.9984741 -13.080017 1.8970947 -20.868134 2.6958618c-7.721527 0.7987976 -15.576202 1.6308594 -23.563995 2.4961853c-7.987793 0.7987671 -15.443085 1.1981506 -22.365845 1.1981506c-17.173752 0 -29.554825 -4.99234 -37.143234 -14.97699c-7.5218506 -10.051239 -11.282761 -23.863373 -11.282761 -41.4364c0 -18.438354 2.4296112 -43.59973 7.288864 -75.48413c5.724579 -34.746643 12.281235 -62.237778 19.669937 -82.47339c7.3887177 -20.235611 18.2388 -34.64682 32.550262 -43.233643c14.311493 -8.653381 33.71518 -12.980072 58.21109 -12.980072c33.149353 0 60.640686 1.1315918 82.47397 3.3947906c21.899902 2.2631989 38.77411 4.4265594 50.62268 6.490036l12.980164 -82.87278c-18.438507 -5.7245483 -39.83914 -10.716888 -64.201904 -14.977005c-24.296234 -4.3266983 -56.080994 -6.4900436 -95.35434 -6.4900436z" fill-rule="evenodd"/><path fill="#000000" fill-opacity="0.0" d="m316.71072 68.72713c-37.60919 0 -70.02634 7.688202 -97.2514 23.064598c-27.158508 15.309837 -49.224792 38.407707 -66.19887 69.29363c-16.97406 30.88591 -29.355148 70.0591 -37.14325 117.51959c-2.8622894 17.173645 -5.4250336 35.079468 -7.6882553 53.71753c-2.2631989 18.571503 -3.3948135 36.843445 -3.3948135 54.815857c0 49.457428 8.886429 85.868195 26.659271 109.23233c17.839417 23.297607 48.42601 34.94635 91.75981 34.94635c8.586884 0 18.305359 -1.1315918 29.155457 -3.3947754c10.850098 -2.2631836 21.6669 -5.0255737 32.45041 -8.2872925c10.850098 -3.2616577 21.06781 -6.9226685 30.653168 -10.983154c9.651947 -4.127014 17.539886 -8.021027 23.663849 -11.682068l9.285828 30.652954l79.67825 0l41.736237 -264.9932c-4.9257812 0 -11.682129 -0.099853516 -20.269012 -0.29956055c-8.586884 -0.19967651 -17.57315 -0.39938354 -26.958832 -0.59906006c-9.385651 -0.19970703 -17.57315 -0.29956055 -24.56247 -0.29956055c-22.498962 0 -42.43518 0.73220825 -59.808624 2.1966248c-17.373444 1.3978577 -31.385376 2.6958618 -42.035767 3.894043l-13.479401 83.47186l71.79031 0l-11.682159 72.987946c-4.0604553 1.1981506 -9.185974 2.329773 -15.376495 3.3947754c-6.123993 0.9984741 -13.080017 1.8970947 -20.868134 2.6958618c-7.721527 0.7987976 -15.576202 1.6308594 -23.563995 2.4961853c-7.987793 0.7987671 -15.443085 1.1981506 -22.365845 1.1981506c-17.173752 0 -29.554825 -4.99234 -37.143234 -14.97699c-7.5218506 -10.051239 -11.282761 -23.863373 -11.282761 -41.4364c0 -18.438354 2.4296112 -43.59973 7.288864 -75.48413c5.724579 -34.746643 12.281235 -62.237778 19.669937 -82.47339c7.3887177 -20.235611 18.2388 -34.64682 32.550262 -43.233643c14.311493 -8.653381 33.71518 -12.980072 58.21109 -12.980072c33.149353 0 60.640686 1.1315918 82.47397 3.3947906c21.899902 2.2631989 38.77411 4.4265594 50.62268 6.490036l12.980164 -82.87278c-18.438507 -5.7245483 -39.83914 -10.716888 -64.201904 -14.977005c-24.296234 -4.3266983 -56.080994 -6.4900436 -95.35434 -6.4900436z" fill-rule="evenodd"/><path stroke="#000000" stroke-width="16.0" stroke-linejoin="round" stroke-linecap="butt" d="m316.71072 68.72713c-37.60919 0 -70.02634 7.688202 -97.2514 23.064598c-27.158508 15.309837 -49.224792 38.407707 -66.19887 69.29363c-16.97406 30.88591 -29.355148 70.0591 -37.14325 117.51959c-2.8622894 17.173645 -5.4250336 35.079468 -7.6882553 53.71753c-2.2631989 18.571503 -3.3948135 36.843445 -3.3948135 54.815857c0 49.457428 8.886429 85.868195 26.659271 109.23233c17.839417 23.297607 48.42601 34.94635 91.75981 34.94635c8.586884 0 18.305359 -1.1315918 29.155457 -3.3947754c10.850098 -2.2631836 21.6669 -5.0255737 32.45041 -8.2872925c10.850098 -3.2616577 21.06781 -6.9226685 30.653168 -10.983154c9.651947 -4.127014 17.539886 -8.021027 23.663849 -11.682068l9.285828 30.652954l79.67825 0l41.736237 -264.9932c-4.9257812 0 -11.682129 -0.099853516 -20.269012 -0.29956055c-8.586884 -0.19967651 -17.57315 -0.39938354 -26.958832 -0.59906006c-9.385651 -0.19970703 -17.57315 -0.29956055 -24.56247 -0.29956055c-22.498962 0 -42.43518 0.73220825 -59.808624 2.1966248c-17.373444 1.3978577 -31.385376 2.6958618 -42.035767 3.894043l-13.479401 83.47186l71.79031 0l-11.682159 72.987946c-4.0604553 1.1981506 -9.185974 2.329773 -15.376495 3.3947754c-6.123993 0.9984741 -13.080017 1.8970947 -20.868134 2.6958618c-7.721527 0.7987976 -15.576202 1.6308594 -23.563995 2.4961853c-7.987793 0.7987671 -15.443085 1.1981506 -22.365845 1.1981506c-17.173752 0 -29.554825 -4.99234 -37.143234 -14.97699c-7.5218506 -10.051239 -11.282761 -23.863373 -11.282761 -41.4364c0 -18.438354 2.4296112 -43.59973 7.288864 -75.48413c5.724579 -34.746643 12.281235 -62.237778 19.669937 -82.47339c7.3887177 -20.235611 18.2388 -34.64682 32.550262 -43.233643c14.311493 -8.653381 33.71518 -12.980072 58.21109 -12.980072c33.149353 0 60.640686 1.1315918 82.47397 3.3947906c21.899902 2.2631989 38.77411 4.4265594 50.62268 6.490036l12.980164 -82.87278c-18.438507 -5.7245483 -39.83914 -10.716888 -64.201904 -14.977005c-24.296234 -4.3266983 -56.080994 -6.4900436 -95.35434 -6.4900436z" fill-rule="evenodd"/><defs><linearGradient id="p.3" gradientUnits="userSpaceOnUse" gradientTransform="matrix(29.91092418877711 0.0 0.0 29.91092418877711 0.0 0.0)" spreadMethod="pad" x1="16.72854715609292" y1="17.762625573279962" x2="46.63947134487003" y2="17.762625573279962"><stop offset="0.0" stop-color="#ff0000"/><stop offset="0.25" stop-color="#ffff00"/><stop offset="0.5" stop-color="#00ff00"/><stop offset="0.75" stop-color="#4a86e8"/><stop offset="1.0" stop-color="#9900ff"/></linearGradient></defs><path fill="url(#p.3)" d="m557.7692 167.4065l-57.402924 360.96057l84.16452 0l22.406921 -141.56558l120.11066 0l-22.327759 141.56558l84.16449 0l57.402893 -360.96057l-84.16449 0l-23.357056 144.02002l-120.18976 0l23.356995 -144.02002zm319.1441 99.28592l-27.236694 170.22708c-0.63342285 4.539398 -1.2140503 9.316345 -1.7418823 14.3307495c-0.47509766 5.0144653 -0.71258545 11.110962 -0.71258545 18.28952c0 19.107666 5.0144653 34.1774 15.043518 45.209137c10.081787 11.031799 26.312927 16.547668 48.69348 16.547668c13.618347 0 25.204468 -1.1348877 34.758423 -3.404541c9.6067505 -2.2697144 18.606445 -5.515869 26.999146 -9.738586c8.445496 -4.2227173 17.207703 -9.421875 26.286621 -15.597565l4.9089355 25.811188l74.90082 0l41.33008 -261.67465l-84.16443 0l-26.761658 169.75204c-6.809204 5.489502 -14.119812 10.108063 -21.931885 13.855682c-7.7592773 3.7476501 -16.653442 5.62146 -26.682434 5.62146c-6.809204 0 -12.747437 -1.4515686 -17.814697 -4.354645c-5.0145264 -2.955902 -7.5217896 -8.656525 -7.5217896 -17.101898c0 -1.9529724 0 -3.4837036 0 -4.592163c0 -1.1612244 0.15838623 -2.5336304 0.47509766 -4.1171265l24.86139 -159.06335z" fill-rule="evenodd"/><defs><linearGradient id="p.4" gradientUnits="userSpaceOnUse" gradientTransform="matrix(29.91092418877711 0.0 0.0 29.91092418877711 0.0 0.0)" spreadMethod="pad" x1="16.72854715609292" y1="17.762625573279962" x2="46.63947134487003" y2="17.762625573279962"><stop offset="0.0" stop-color="#ff0000"/><stop offset="0.25" stop-color="#ffff00"/><stop offset="0.5" stop-color="#00ff00"/><stop offset="0.75" stop-color="#4a86e8"/><stop offset="1.0" stop-color="#9900ff"/></linearGradient></defs><path fill="url(#p.4)" d="m1283.6284 330.90366c7.7592773 0 14.225342 2.744751 19.398193 8.234253c5.225708 5.4894714 7.838501 15.86145 7.838501 31.115906c0 3.272583 -0.18469238 7.1785583 -0.5541992 11.717957c-0.31677246 4.539398 -0.95007324 9.237152 -1.9002686 14.093231c-3.5893555 25.600037 -9.105225 43.361755 -16.547852 53.285034c-7.442627 9.870514 -16.838135 14.805786 -28.186768 14.805786c-10.081787 0 -18.210571 -1.1348572 -24.386353 -3.404541c-6.122925 -2.2696838 -11.612549 -5.515869 -16.46875 -9.738556l17.498047 -109.89545c6.122925 -3.272583 13.169678 -5.779785 21.140137 -7.5216675c7.970337 -1.7946472 15.3602295 -2.6919556 22.169312 -2.6919556zm-98.337036 -173.71078l-58.828125 371.1742l74.90088 0l13.143311 -24.306854c6.1757812 5.4895325 13.222412 10.266449 21.140137 14.33078c7.970337 4.064331 16.653442 7.2313232 26.04895 9.501038c9.39563 2.2696533 18.975952 3.404541 28.741089 3.404541c16.838135 0 31.908081 -4.3810425 45.209717 -13.143127c13.301636 -8.762054 24.491943 -21.562073 33.5708 -38.400055c9.078857 -16.890778 15.412964 -37.502777 19.00232 -61.835968c1.9002686 -11.981903 3.510254 -23.409576 4.829834 -34.28296c1.3195801 -10.873413 1.9793701 -19.873016 1.9793701 -26.99881c0 -29.506012 -7.3897705 -52.36133 -22.169434 -68.56589c-14.779541 -16.20456 -34.969482 -24.306824 -60.569946 -24.306824c-8.445435 0 -18.42163 1.4515381 -29.92871 4.354645c-11.506958 2.9031067 -22.459717 6.9674377 -32.858154 12.192993l19.477417 -123.11771z" fill-rule="evenodd"/><defs><linearGradient id="p.5" gradientUnits="userSpaceOnUse" gradientTransform="matrix(19.346469754218376 0.0 0.0 19.346469754218376 0.0 0.0)" spreadMethod="pad" x1="25.863446621116697" y1="8.115726782423632" x2="25.859505927128133" y2="27.462196135300843"><stop offset="0.0" stop-color="#ffffff" stop-opacity="0.0"/><stop offset="0.29" stop-color="#000000" stop-opacity="0.0"/><stop offset="1.0" stop-color="#000000" stop-opacity="0.8"/></linearGradient></defs><path fill="url(#p.5)" d="m557.7692 167.4065l-57.402924 360.96057l84.16452 0l22.406921 -141.56558l120.11066 0l-22.327759 141.56558l84.16449 0l57.402893 -360.96057l-84.16449 0l-23.357056 144.02002l-120.18976 0l23.356995 -144.02002zm319.1441 99.28592l-27.236694 170.22708c-0.63342285 4.539398 -1.2140503 9.316345 -1.7418823 14.3307495c-0.47509766 5.0144653 -0.71258545 11.110962 -0.71258545 18.28952c0 19.107666 5.0144653 34.1774 15.043518 45.209137c10.081787 11.031799 26.312927 16.547668 48.69348 16.547668c13.618347 0 25.204468 -1.1348877 34.758423 -3.404541c9.6067505 -2.2697144 18.606445 -5.515869 26.999146 -9.738586c8.445496 -4.2227173 17.207703 -9.421875 26.286621 -15.597565l4.9089355 25.811188l74.90082 0l41.33008 -261.67465l-84.16443 0l-26.761658 169.75204c-6.809204 5.489502 -14.119812 10.108063 -21.931885 13.855682c-7.7592773 3.7476501 -16.653442 5.62146 -26.682434 5.62146c-6.809204 0 -12.747437 -1.4515686 -17.814697 -4.354645c-5.0145264 -2.955902 -7.5217896 -8.656525 -7.5217896 -17.101898c0 -1.9529724 0 -3.4837036 0 -4.592163c0 -1.1612244 0.15838623 -2.5336304 0.47509766 -4.1171265l24.86139 -159.06335z" fill-rule="evenodd"/><defs><linearGradient id="p.6" gradientUnits="userSpaceOnUse" gradientTransform="matrix(19.346469754218376 0.0 0.0 19.346469754218376 0.0 0.0)" spreadMethod="pad" x1="25.863446621116697" y1="8.115726782423632" x2="25.859505927128133" y2="27.462196135300843"><stop offset="0.0" stop-color="#ffffff" stop-opacity="0.0"/><stop offset="0.29" stop-color="#000000" stop-opacity="0.0"/><stop offset="1.0" stop-color="#000000" stop-opacity="0.8"/></linearGradient></defs><path fill="url(#p.6)" d="m1283.6284 330.90366c7.7592773 0 14.225342 2.744751 19.398193 8.234253c5.225708 5.4894714 7.838501 15.86145 7.838501 31.115906c0 3.272583 -0.18469238 7.1785583 -0.5541992 11.717957c-0.31677246 4.539398 -0.95007324 9.237152 -1.9002686 14.093231c-3.5893555 25.600037 -9.105225 43.361755 -16.547852 53.285034c-7.442627 9.870514 -16.838135 14.805786 -28.186768 14.805786c-10.081787 0 -18.210571 -1.1348572 -24.386353 -3.404541c-6.122925 -2.2696838 -11.612549 -5.515869 -16.46875 -9.738556l17.498047 -109.89545c6.122925 -3.272583 13.169678 -5.779785 21.140137 -7.5216675c7.970337 -1.7946472 15.3602295 -2.6919556 22.169312 -2.6919556zm-98.337036 -173.71078l-58.828125 371.1742l74.90088 0l13.143311 -24.306854c6.1757812 5.4895325 13.222412 10.266449 21.140137 14.33078c7.970337 4.064331 16.653442 7.2313232 26.04895 9.501038c9.39563 2.2696533 18.975952 3.404541 28.741089 3.404541c16.838135 0 31.908081 -4.3810425 45.209717 -13.143127c13.301636 -8.762054 24.491943 -21.562073 33.5708 -38.400055c9.078857 -16.890778 15.412964 -37.502777 19.00232 -61.835968c1.9002686 -11.981903 3.510254 -23.409576 4.829834 -34.28296c1.3195801 -10.873413 1.9793701 -19.873016 1.9793701 -26.99881c0 -29.506012 -7.3897705 -52.36133 -22.169434 -68.56589c-14.779541 -16.20456 -34.969482 -24.306824 -60.569946 -24.306824c-8.445435 0 -18.42163 1.4515381 -29.92871 4.354645c-11.506958 2.9031067 -22.459717 6.9674377 -32.858154 12.192993l19.477417 -123.11771z" fill-rule="evenodd"/><path fill="#000000" fill-opacity="0.0" d="m557.7692 167.4065l-57.402924 360.96057l84.16452 0l22.406921 -141.56558l120.11066 0l-22.327759 141.56558l84.16449 0l57.402893 -360.96057l-84.16449 0l-23.357056 144.02002l-120.18976 0l23.356995 -144.02002zm319.1441 99.28592l-27.236694 170.22708c-0.63342285 4.539398 -1.2140503 9.316345 -1.7418823 14.3307495c-0.47509766 5.0144653 -0.71258545 11.110962 -0.71258545 18.28952c0 19.107666 5.0144653 34.1774 15.043518 45.209137c10.081787 11.031799 26.312927 16.547668 48.69348 16.547668c13.618347 0 25.204468 -1.1348877 34.758423 -3.404541c9.6067505 -2.2697144 18.606445 -5.515869 26.999146 -9.738586c8.445496 -4.2227173 17.207703 -9.421875 26.286621 -15.597565l4.9089355 25.811188l74.90082 0l41.33008 -261.67465l-84.16443 0l-26.761658 169.75204c-6.809204 5.489502 -14.119812 10.108063 -21.931885 13.855682c-7.7592773 3.7476501 -16.653442 5.62146 -26.682434 5.62146c-6.809204 0 -12.747437 -1.4515686 -17.814697 -4.354645c-5.0145264 -2.955902 -7.5217896 -8.656525 -7.5217896 -17.101898c0 -1.9529724 0 -3.4837036 0 -4.592163c0 -1.1612244 0.15838623 -2.5336304 0.47509766 -4.1171265l24.86139 -159.06335z" fill-rule="evenodd"/><path fill="#000000" fill-opacity="0.0" d="m1283.6284 330.90366c7.7592773 0 14.225342 2.744751 19.398193 8.234253c5.225708 5.4894714 7.838501 15.86145 7.838501 31.115906c0 3.272583 -0.18469238 7.1785583 -0.5541992 11.717957c-0.31677246 4.539398 -0.95007324 9.237152 -1.9002686 14.093231c-3.5893555 25.600037 -9.105225 43.361755 -16.547852 53.285034c-7.442627 9.870514 -16.838135 14.805786 -28.186768 14.805786c-10.081787 0 -18.210571 -1.1348572 -24.386353 -3.404541c-6.122925 -2.2696838 -11.612549 -5.515869 -16.46875 -9.738556l17.498047 -109.89545c6.122925 -3.272583 13.169678 -5.779785 21.140137 -7.5216675c7.970337 -1.7946472 15.3602295 -2.6919556 22.169312 -2.6919556zm-98.337036 -173.71078l-58.828125 371.1742l74.90088 0l13.143311 -24.306854c6.1757812 5.4895325 13.222412 10.266449 21.140137 14.33078c7.970337 4.064331 16.653442 7.2313232 26.04895 9.501038c9.39563 2.2696533 18.975952 3.404541 28.741089 3.404541c16.838135 0 31.908081 -4.3810425 45.209717 -13.143127c13.301636 -8.762054 24.491943 -21.562073 33.5708 -38.400055c9.078857 -16.890778 15.412964 -37.502777 19.00232 -61.835968c1.9002686 -11.981903 3.510254 -23.409576 4.829834 -34.28296c1.3195801 -10.873413 1.9793701 -19.873016 1.9793701 -26.99881c0 -29.506012 -7.3897705 -52.36133 -22.169434 -68.56589c-14.779541 -16.20456 -34.969482 -24.306824 -60.569946 -24.306824c-8.445435 0 -18.42163 1.4515381 -29.92871 4.354645c-11.506958 2.9031067 -22.459717 6.9674377 -32.858154 12.192993l19.477417 -123.11771z" fill-rule="evenodd"/><path stroke="#000000" stroke-width="16.0" stroke-linejoin="round" stroke-linecap="butt" d="m557.7692 167.4065l-57.402924 360.96057l84.16452 0l22.406921 -141.56558l120.11066 0l-22.327759 141.56558l84.16449 0l57.402893 -360.96057l-84.16449 0l-23.357056 144.02002l-120.18976 0l23.356995 -144.02002zm319.1441 99.28592l-27.236694 170.22708c-0.63342285 4.539398 -1.2140503 9.316345 -1.7418823 14.3307495c-0.47509766 5.0144653 -0.71258545 11.110962 -0.71258545 18.28952c0 19.107666 5.0144653 34.1774 15.043518 45.209137c10.081787 11.031799 26.312927 16.547668 48.69348 16.547668c13.618347 0 25.204468 -1.1348877 34.758423 -3.404541c9.6067505 -2.2697144 18.606445 -5.515869 26.999146 -9.738586c8.445496 -4.2227173 17.207703 -9.421875 26.286621 -15.597565l4.9089355 25.811188l74.90082 0l41.33008 -261.67465l-84.16443 0l-26.761658 169.75204c-6.809204 5.489502 -14.119812 10.108063 -21.931885 13.855682c-7.7592773 3.7476501 -16.653442 5.62146 -26.682434 5.62146c-6.809204 0 -12.747437 -1.4515686 -17.814697 -4.354645c-5.0145264 -2.955902 -7.5217896 -8.656525 -7.5217896 -17.101898c0 -1.9529724 0 -3.4837036 0 -4.592163c0 -1.1612244 0.15838623 -2.5336304 0.47509766 -4.1171265l24.86139 -159.06335z" fill-rule="evenodd"/><path stroke="#000000" stroke-width="16.0" stroke-linejoin="round" stroke-linecap="butt" d="m1283.6284 330.90366c7.7592773 0 14.225342 2.744751 19.398193 8.234253c5.225708 5.4894714 7.838501 15.86145 7.838501 31.115906c0 3.272583 -0.18469238 7.1785583 -0.5541992 11.717957c-0.31677246 4.539398 -0.95007324 9.237152 -1.9002686 14.093231c-3.5893555 25.600037 -9.105225 43.361755 -16.547852 53.285034c-7.442627 9.870514 -16.838135 14.805786 -28.186768 14.805786c-10.081787 0 -18.210571 -1.1348572 -24.386353 -3.404541c-6.122925 -2.2696838 -11.612549 -5.515869 -16.46875 -9.738556l17.498047 -109.89545c6.122925 -3.272583 13.169678 -5.779785 21.140137 -7.5216675c7.970337 -1.7946472 15.3602295 -2.6919556 22.169312 -2.6919556zm-98.337036 -173.71078l-58.828125 371.1742l74.90088 0l13.143311 -24.306854c6.1757812 5.4895325 13.222412 10.266449 21.140137 14.33078c7.970337 4.064331 16.653442 7.2313232 26.04895 9.501038c9.39563 2.2696533 18.975952 3.404541 28.741089 3.404541c16.838135 0 31.908081 -4.3810425 45.209717 -13.143127c13.301636 -8.762054 24.491943 -21.562073 33.5708 -38.400055c9.078857 -16.890778 15.412964 -37.502777 19.00232 -61.835968c1.9002686 -11.981903 3.510254 -23.409576 4.829834 -34.28296c1.3195801 -10.873413 1.9793701 -19.873016 1.9793701 -26.99881c0 -29.506012 -7.3897705 -52.36133 -22.169434 -68.56589c-14.779541 -16.20456 -34.969482 -24.306824 -60.569946 -24.306824c-8.445435 0 -18.42163 1.4515381 -29.92871 4.354645c-11.506958 2.9031067 -22.459717 6.9674377 -32.858154 12.192993l19.477417 -123.11771z" fill-rule="evenodd"/></g></svg>