<svg version="1.1" viewBox="0.0 0.0 500.0 500.0" fill="none" stroke="none" stroke-linecap="square" stroke-miterlimit="10" xmlns:xlink="http://www.w3.org/1999/xlink" xmlns="http://www.w3.org/2000/svg"><clipPath id="p.0"><path d="m0 0l500.0 0l0 500.0l-500.0 0l0 -500.0z" clip-rule="nonzero"/></clipPath><g clip-path="url(#p.0)"><path fill="#000000" fill-opacity="0.0" d="m0 0l500.0 0l0 500.0l-500.0 0z" fill-rule="evenodd"/><path fill="#ff3f3f" d="m0 250.0c0 -138.0712 111.92881 -250.0 250.0 -250.0c66.30411 0 129.89261 26.33921 176.7767 73.223305c46.884094 46.884094 73.2233 110.47257 73.2233 176.7767c0 138.0712 -111.9288 250.0 -250.0 250.0c-138.0712 0 -250.0 -111.9288 -250.0 -250.0z" fill-rule="evenodd"/><path fill="#b72d2d" d="m154.15646 122.37838l239.46457 239.46457l-47.77951 47.77951l-239.46457 -239.46455z" fill-rule="evenodd"/><path stroke="#b72d2d" stroke-width="24.0" stroke-linejoin="round" stroke-linecap="butt" d="m154.15646 122.37838l239.46457 239.46457l-47.77951 47.77951l-239.46457 -239.46455z" fill-rule="evenodd"/><path fill="#b72d2d" d="m106.385 361.83704l239.46457 -239.46457l47.77951 47.779533l-239.46455 239.46455z" fill-rule="evenodd"/><path stroke="#b72d2d" stroke-width="24.0" stroke-linejoin="round" stroke-linecap="butt" d="m106.385 361.83704l239.46457 -239.46457l47.77951 47.779533l-239.46455 239.46455z" fill-rule="evenodd"/><path fill="#ffffff" d="m154.15253 98.381004l239.46457 239.46457l-47.77951 47.77951l-239.46457 -239.46455z" fill-rule="evenodd"/><path stroke="#ffffff" stroke-width="24.0" stroke-linejoin="round" stroke-linecap="butt" d="m154.15253 98.381004l239.46457 239.46457l-47.77951 47.77951l-239.46457 -239.46455z" fill-rule="evenodd"/><path fill="#ffffff" d="m106.381065 337.83966l239.46457 -239.46457l47.77951 47.779533l-239.46455 239.46455z" fill-rule="evenodd"/><path stroke="#ffffff" stroke-width="24.0" stroke-linejoin="round" stroke-linecap="butt" d="m106.381065 337.83966l239.46457 -239.46457l47.77951 47.779533l-239.46455 239.46455z" fill-rule="evenodd"/></g></svg>